<?xml version="1.0" standalone="no"?>
<!DOCTYPE svg PUBLIC "-//W3C//DTD SVG 20010904//EN"
 "http://www.w3.org/TR/2001/REC-SVG-20010904/DTD/svg10.dtd">
<svg version="1.0" xmlns="http://www.w3.org/2000/svg"
 width="4068.000000pt" height="3061.000000pt" viewBox="0 0 4068.000000 3061.000000"
 preserveAspectRatio="xMidYMid meet">

<g transform="translate(0.000000,3061.000000) scale(0.100000,-0.100000)"
fill="#000000" stroke="none">
<path d="M1015 29505 c-26 -25 -27 -31 -23 -93 11 -138 75 -250 321 -557 284
-354 693 -764 1097 -1101 1017 -849 2421 -1621 3835 -2110 254 -88 264 -99 58
-64 -587 101 -1807 472 -3198 975 -372 134 -496 164 -555 133 -34 -19 -36 -41
-6 -101 51 -104 143 -196 298 -299 614 -408 1367 -765 2223 -1055 470 -158
830 -256 1265 -343 599 -120 804 -183 649 -200 -73 -8 -427 8 -668 30 -660 61
-1380 192 -2206 400 -706 178 -1261 346 -2105 639 -265 92 -363 94 -296 6 33
-43 197 -187 316 -276 592 -444 1465 -803 2572 -1058 1281 -296 2853 -460
4423 -461 536 0 931 -34 961 -81 18 -30 -26 -42 -228 -65 -439 -49 -766 -65
-1323 -65 -715 0 -1335 38 -2115 131 -980 116 -2199 343 -3015 561 -227 60
-284 69 -320 45 -33 -22 -33 -59 3 -124 41 -78 77 -110 219 -194 717 -428
1845 -745 3303 -928 450 -56 971 -102 1316 -116 90 -4 167 -10 169 -14 8 -13
-358 -52 -690 -74 -823 -56 -2187 -69 -3435 -35 -854 23 -998 10 -1008 -90 -4
-42 34 -94 91 -122 105 -54 737 -196 1262 -283 797 -133 1652 -213 2740 -258
395 -16 1812 -16 2240 0 983 37 1696 83 2458 158 142 14 266 23 275 21 28 -6
-258 -94 -493 -152 -651 -160 -2029 -402 -2733 -480 -577 -64 -1331 -164
-1722 -229 -118 -19 -164 -32 -246 -68 -229 -101 -302 -188 -221 -265 45 -43
79 -58 193 -87 255 -63 530 -86 1040 -87 471 0 781 15 1384 67 666 57 1428
148 2203 265 148 22 273 39 280 36 24 -8 -501 -184 -1033 -346 -430 -130
-1307 -382 -1940 -556 -321 -89 -390 -115 -390 -147 0 -80 489 -152 1380 -203
408 -23 398 -23 865 44 579 84 702 107 1160 210 593 134 875 192 1033 215 42
6 31 -10 -33 -53 -261 -171 -755 -365 -1475 -580 -234 -70 -597 -170 -763
-212 -98 -24 -98 -26 -20 -80 255 -176 891 -161 1788 41 463 104 992 251 1219
339 192 74 242 90 291 94 91 5 40 -61 -140 -182 -100 -67 -153 -98 -460 -266
-406 -223 -674 -422 -725 -539 -25 -55 -19 -70 29 -85 186 -55 725 107 1147
344 252 143 434 237 536 279 90 37 158 47 158 22 0 -42 -147 -182 -360 -341
-58 -44 -129 -102 -159 -130 -96 -90 -189 -238 -216 -344 -16 -59 -16 -67 0
-107 21 -54 55 -79 136 -100 74 -19 200 -15 339 11 142 27 607 187 770 266 80
39 172 77 205 84 88 21 245 18 245 -5 0 -4 -80 -63 -177 -130 -210 -145 -322
-232 -380 -292 -88 -91 -153 -237 -153 -343 0 -49 3 -56 32 -77 24 -17 50 -24
100 -26 163 -10 378 97 904 449 233 155 448 285 626 379 74 38 137 70 140 70
3 0 -119 -125 -271 -278 -264 -264 -638 -670 -728 -791 -58 -77 -67 -104 -42
-127 17 -15 36 -18 114 -17 51 1 122 7 157 13 340 62 858 380 1397 859 63 56
116 99 118 97 3 -2 -127 -168 -288 -368 -297 -367 -919 -1137 -948 -1172 -16
-18 -13 -19 94 -13 233 13 474 106 754 290 235 155 474 362 730 634 64 67 117
120 119 118 2 -2 -166 -299 -373 -660 -207 -361 -379 -663 -382 -671 -12 -32
156 -6 294 46 251 94 535 287 854 580 l92 85 -6 -51 c-8 -71 -39 -161 -102
-291 -116 -244 -315 -550 -438 -675 -149 -152 -246 -321 -247 -429 0 -139 128
-199 400 -186 293 14 631 106 909 246 34 18 65 31 67 28 2 -2 -24 -39 -57 -83
-89 -115 -150 -207 -229 -346 -57 -100 -70 -131 -70 -166 0 -244 336 -192 985
151 77 41 203 111 279 156 77 45 141 79 144 77 2 -3 -5 -31 -16 -63 -81 -233
-101 -476 -57 -672 13 -56 22 -75 43 -89 120 -78 452 147 986 668 116 113 157
148 153 130 -3 -14 -21 -86 -41 -160 -60 -226 -102 -505 -113 -740 -6 -138 5
-190 52 -237 29 -29 39 -33 88 -33 73 0 180 54 302 152 120 97 519 497 735
737 96 107 192 213 213 235 l39 41 -6 -30 c-3 -16 -16 -79 -30 -140 -55 -240
-136 -746 -136 -845 0 -71 15 -122 46 -159 37 -44 78 -54 161 -40 286 48 579
300 802 687 50 88 61 102 60 77 0 -16 -14 -160 -32 -319 -26 -228 -31 -307
-25 -378 20 -259 145 -377 311 -294 83 42 233 154 334 250 144 137 217 243
378 551 144 274 315 540 455 707 80 95 131 142 187 171 31 17 73 23 73 11 0
-3 -23 -31 -51 -62 -162 -181 -309 -481 -419 -859 -132 -449 -138 -749 -18
-835 84 -59 293 -19 463 90 144 93 250 215 483 559 178 263 238 343 431 568
249 289 464 515 492 515 18 0 8 -21 -53 -112 -140 -210 -291 -545 -373 -831
-85 -298 -139 -631 -116 -715 24 -85 73 -102 166 -58 99 46 148 94 273 268
193 268 280 376 401 501 75 77 115 107 146 107 26 0 17 -29 -34 -114 -73 -121
-166 -312 -190 -390 -12 -37 -21 -90 -21 -116 0 -84 56 -108 171 -74 111 33
324 151 517 288 51 36 96 66 98 66 3 0 -23 -31 -58 -69 -154 -166 -317 -458
-461 -823 -68 -172 -87 -233 -96 -307 -27 -225 102 -253 409 -89 265 141 725
490 1194 906 82 73 151 130 153 128 2 -2 -3 -31 -11 -63 -9 -33 -20 -125 -26
-204 -12 -162 -2 -244 43 -343 129 -280 461 -151 977 380 193 199 481 537 625
734 35 48 40 52 43 32 4 -27 -33 -448 -54 -610 -43 -339 8 -522 141 -509 59 6
277 115 375 187 290 214 594 624 860 1159 48 97 107 222 131 279 25 58 46 95
48 85 12 -61 -59 -386 -138 -621 -116 -348 -334 -830 -550 -1216 -121 -216
-136 -320 -57 -393 90 -83 298 -84 605 -2 62 16 116 28 119 25 15 -16 -174
-211 -358 -370 -289 -248 -893 -709 -1272 -972 -63 -43 -100 -100 -118 -178
-27 -123 62 -197 275 -227 165 -23 529 7 869 72 87 16 163 28 168 27 6 -2
-358 -318 -808 -702 -451 -385 -829 -711 -841 -725 -40 -47 -94 -160 -100
-210 -23 -196 294 -233 890 -105 65 14 120 24 123 22 2 -2 -72 -53 -164 -114
-296 -194 -759 -534 -994 -732 -191 -160 -298 -309 -298 -414 0 -60 16 -93 69
-141 138 -125 504 -199 901 -182 l165 6 -106 -64 c-298 -178 -472 -395 -515
-637 -15 -91 -10 -122 43 -223 123 -235 432 -301 918 -197 115 25 450 134 550
179 37 17 72 31 78 31 6 0 -23 -35 -65 -77 -187 -194 -336 -458 -450 -798 -49
-146 -50 -153 -46 -246 3 -83 8 -104 36 -162 51 -104 142 -169 289 -208 101
-27 320 -36 463 -20 94 11 113 17 219 70 152 76 335 150 534 215 180 59 423
124 431 115 3 -3 -31 -66 -75 -140 -160 -264 -284 -548 -324 -744 -23 -110
-23 -260 -1 -307 25 -53 126 -144 193 -176 52 -24 70 -27 163 -27 122 0 200
21 345 90 234 112 582 389 845 674 51 56 95 99 97 97 2 -2 -14 -64 -36 -137
-99 -329 -143 -571 -161 -884 -29 -532 104 -877 378 -977 79 -29 236 -29 346
1 105 28 245 95 358 173 90 61 342 299 419 396 l35 43 0 -378 c0 -298 3 -406
17 -511 52 -401 153 -676 298 -806 55 -49 92 -61 168 -54 138 13 271 149 400
406 178 354 358 1005 425 1538 38 305 77 459 115 459 8 0 24 -16 35 -35 19
-31 21 -51 20 -170 0 -74 -8 -268 -17 -430 -30 -531 -40 -950 -34 -1395 3
-236 11 -484 16 -550 42 -465 107 -643 227 -620 95 17 162 147 206 397 10 59
13 1304 18 6367 l5 6295 114 -142 c62 -79 116 -141 118 -138 3 3 0 142 -8 310
-13 321 -11 348 29 358 45 12 101 -38 182 -161 l15 -23 65 28 c36 15 68 30 72
34 5 3 -8 44 -28 90 -95 225 -174 516 -174 640 l0 53 30 -60 c58 -116 171
-197 317 -228 67 -14 193 -20 193 -9 0 6 -132 353 -219 574 -34 85 -61 161
-61 168 0 7 30 65 67 129 l67 116 96 -7 c52 -4 128 -10 169 -13 66 -6 74 -4
68 10 -14 36 -57 261 -72 373 -21 157 -21 461 0 619 39 296 130 587 255 818
17 31 35 57 39 57 4 0 15 -154 25 -342 10 -189 19 -344 21 -346 2 -2 67 81
146 184 l144 187 11 566 10 566 48 100 c94 195 225 552 306 838 19 64 37 117
40 117 10 0 47 -142 64 -245 29 -172 38 -302 40 -537 0 -130 2 -236 3 -235 7
7 76 457 92 602 46 410 53 932 16 1280 -51 487 -162 936 -328 1320 -66 154
-177 357 -177 324 0 -8 18 -154 40 -324 23 -169 40 -315 38 -323 -2 -8 -68 68
-148 169 -203 259 -423 474 -640 625 l-85 59 100 -100 c153 -153 232 -283 253
-418 7 -41 25 -77 90 -174 45 -67 82 -128 82 -134 0 -18 -113 -209 -124 -209
-5 0 -57 26 -115 59 -58 32 -121 66 -139 75 l-33 17 12 -23 c7 -13 77 -139
156 -280 78 -141 143 -262 143 -270 0 -7 -30 -98 -67 -202 l-68 -188 -7 88
c-5 48 -19 133 -32 188 -39 162 -43 165 -48 46 -4 -83 -12 -125 -37 -200 -37
-110 -101 -235 -169 -329 l-47 -66 -2 55 c-3 70 -23 190 -31 190 -4 0 -25 -35
-47 -78 -51 -101 -132 -182 -222 -225 -60 -28 -80 -32 -174 -35 -139 -5 -233
18 -394 97 -66 32 -121 58 -123 56 -2 -2 3 -18 11 -36 21 -51 97 -137 173
-199 213 -172 323 -327 404 -569 35 -105 39 -201 15 -370 -66 -449 -281 -960
-615 -1458 -58 -86 -110 -158 -115 -160 -6 -2 -21 39 -34 89 -163 640 -353
1127 -509 1298 -50 56 -89 87 -97 78 -2 -2 7 -26 20 -54 26 -54 71 -203 81
-266 5 -30 3 -38 -9 -38 -29 0 -179 146 -265 258 -13 18 -26 31 -28 29 -2 -2
10 -43 26 -92 17 -49 30 -93 30 -98 0 -5 -27 16 -61 46 -100 91 -262 157 -384
156 l-40 0 50 -22 c132 -59 225 -129 298 -225 73 -97 74 -96 -105 -89 -470 20
-784 170 -1021 487 -94 125 -159 194 -230 242 -118 80 -178 90 -232 38 -59
-57 -80 -127 -105 -345 -17 -140 -107 -576 -135 -648 -14 -34 14 -16 96 61 95
89 163 176 210 267 19 36 36 65 39 65 3 0 19 -114 35 -254 l28 -254 -70 -69
c-86 -85 -139 -184 -156 -294 -10 -62 -19 -84 -58 -139 -76 -106 -191 -302
-206 -349 -7 -24 -13 -66 -13 -92 0 -40 6 -55 31 -84 19 -21 46 -39 71 -46 57
-15 162 -6 236 21 76 28 123 21 156 -23 17 -24 21 -43 21 -107 -1 -43 2 -77 5
-76 20 12 408 176 415 176 25 0 -19 -481 -80 -873 -14 -88 -25 -161 -25 -164
0 -7 168 150 419 391 112 108 208 196 213 196 17 0 4 -269 -16 -325 -25 -72
-85 -155 -137 -190 -27 -18 -77 -74 -129 -144 -100 -133 -275 -321 -363 -387
-154 -117 -291 -149 -390 -91 -26 15 -47 34 -47 41 0 7 25 67 56 132 72 153
132 331 146 438 22 167 -42 311 -131 291 -16 -3 -79 -36 -138 -72 -59 -36
-134 -77 -165 -89 -68 -28 -139 -32 -159 -8 -23 28 -13 99 25 180 l36 75 -68
-59 c-122 -107 -218 -162 -340 -193 -98 -25 -272 -25 -272 0 0 4 38 33 85 65
225 153 371 321 391 452 l6 41 -71 -1 c-83 -1 -109 17 -118 81 -5 35 12 123
33 177 6 16 -1 14 -37 -11 -209 -144 -592 -246 -969 -260 l-165 -6 -34 92
c-19 51 -30 96 -25 100 5 4 32 13 59 20 65 16 171 77 289 165 105 79 242 196
229 196 -4 0 -46 -7 -93 -15 -161 -29 -377 -54 -557 -66 -197 -13 -372 -4
-488 26 -116 30 -195 100 -195 173 l0 35 88 -6 c225 -14 444 43 623 163 60 41
229 202 229 219 0 4 -66 -12 -147 -35 -82 -23 -215 -54 -298 -70 -131 -25
-175 -28 -345 -29 -265 0 -390 27 -555 123 -109 64 -259 242 -241 287 3 10 20
15 47 15 159 0 442 155 627 343 l63 64 -250 18 c-138 11 -251 22 -251 26 0 4
137 97 305 208 l306 201 57 0 c135 0 290 27 404 70 76 28 192 113 234 171 l34
46 -83 -33 c-120 -49 -213 -67 -315 -62 -148 7 -247 71 -312 200 -52 105 -69
98 228 99 l257 1 -100 18 c-277 52 -425 140 -412 244 3 21 9 42 14 46 4 5 81
13 171 19 261 18 507 71 766 165 55 20 101 38 102 39 1 1 -73 2 -164 3 -116 0
-195 5 -257 17 -113 22 -275 67 -275 77 0 4 24 10 53 13 147 18 444 169 739
378 42 29 75 55 74 56 -1 1 -33 -9 -71 -23 -139 -51 -378 -94 -510 -93 -52 0
-57 2 -35 11 244 105 361 170 518 288 93 69 273 238 325 304 l32 40 -55 -37
c-80 -54 -199 -97 -284 -103 l-71 -5 40 36 c165 152 834 554 1343 809 843 422
1584 662 2252 731 347 36 788 1 1016 -81 10 -4 17 -4 14 -1 -10 11 -170 67
-294 103 -140 41 -358 86 -536 111 -183 25 -730 25 -920 0 -185 -25 -429 -72
-535 -104 -15 -5 -12 3 14 32 66 75 127 249 119 340 l-3 38 -53 -81 c-62 -96
-153 -210 -214 -270 -41 -39 -53 -45 -149 -66 -57 -13 -200 -52 -317 -86 -118
-34 -216 -59 -219 -57 -2 3 2 18 10 34 40 76 97 320 97 411 0 33 -1 33 -69
-55 -204 -263 -511 -525 -831 -709 -304 -175 -728 -466 -1072 -736 -48 -37
-91 -68 -96 -68 -5 0 -16 26 -26 58 -72 235 -232 417 -426 482 -51 17 -102 24
-235 30 -335 17 -564 86 -702 214 -84 78 -116 145 -121 261 -8 185 66 363 243
581 421 518 641 880 770 1269 239 721 102 1243 -433 1645 -792 595 -2247 732
-4247 399 -601 -100 -1280 -253 -1861 -418 -1477 -421 -3645 -735 -6064 -880
-1217 -73 -2021 -95 -3490 -95 -1124 0 -1536 6 -2233 35 -142 6 -261 9 -263 7
-2 -3 307 -101 686 -219 380 -117 690 -216 690 -219 0 -3 -197 -43 -437 -88
-241 -46 -448 -87 -460 -90 -18 -6 27 -31 212 -121 129 -63 235 -117 235 -121
0 -4 -19 -10 -42 -13 -24 -4 -115 -18 -203 -32 -1053 -165 -2209 -193 -3330
-80 -2160 218 -4428 984 -6385 2155 -472 282 -739 469 -1005 701 -994 869
-1656 1344 -1906 1366 -52 5 -60 3 -84 -22z m25558 -2030 c141 -37 278 -145
346 -273 l33 -63 867 2 c984 2 876 11 1011 -89 41 -31 154 -119 250 -197 369
-297 1008 -769 1071 -791 74 -26 252 -34 771 -34 l531 0 -7 -52 c-8 -67 -52
-247 -72 -293 l-14 -35 -508 5 c-621 7 -721 16 -872 73 -25 9 -196 126 -380
261 -366 266 -489 360 -804 613 l-209 168 -817 0 -817 0 -33 -66 c-39 -80
-132 -177 -211 -222 -67 -38 -192 -72 -263 -72 -199 1 -396 121 -481 293 -109
223 -71 463 101 633 67 66 159 118 247 140 72 17 192 17 260 -1z m-1129 -890
c144 -38 281 -146 345 -273 l32 -63 907 1 c669 2 915 -1 937 -10 38 -14 88
-52 360 -270 303 -243 687 -531 1024 -770 74 -52 91 -53 1104 -57 521 -2 937
-8 937 -13 0 -8 -180 -264 -232 -330 l-23 -29 -773 0 c-484 -1 -808 3 -868 10
-112 12 -231 41 -289 69 -41 20 -557 394 -784 567 -69 53 -229 179 -354 280
l-228 183 -858 0 -858 0 -33 -67 c-44 -89 -143 -187 -232 -231 -223 -109 -467
-67 -633 109 -70 75 -103 131 -131 224 -23 76 -23 220 -1 293 55 182 196 323
372 373 76 22 203 24 279 4z m-5281 -900 c141 -37 278 -145 346 -273 l33 -63
867 2 c984 2 876 11 1011 -89 41 -31 154 -119 250 -197 377 -304 1008 -769
1074 -792 22 -8 101 -19 175 -24 166 -12 4805 -38 4809 -27 2 4 374 8 827 8
l824 0 -30 -66 c-29 -64 -62 -191 -74 -286 l-6 -48 -642 6 c-353 3 -1783 12
-3177 20 -1559 8 -2570 18 -2625 24 -98 11 -184 31 -255 58 -25 9 -196 126
-380 261 -366 266 -489 360 -804 613 l-209 168 -817 0 -817 0 -33 -66 c-39
-80 -132 -177 -211 -222 -67 -38 -192 -72 -263 -72 -199 1 -396 121 -481 293
-109 223 -71 463 101 633 67 66 159 118 247 140 72 17 192 17 260 -1z m4279
-6 c155 -33 306 -155 370 -297 l19 -43 924 2 924 1 46 -26 c25 -15 179 -134
344 -265 269 -214 431 -337 766 -581 l109 -80 -319 0 -319 0 -95 73 c-53 39
-199 154 -324 255 -126 100 -249 198 -274 217 l-46 35 -866 0 -866 0 -34 -68
c-45 -88 -147 -189 -232 -231 -68 -33 -178 -61 -244 -61 -66 0 -176 28 -245
62 -125 61 -239 201 -275 339 -20 73 -19 222 1 290 53 181 199 324 380 374 61
17 186 19 256 4z m-5408 -884 c144 -38 281 -146 345 -273 l32 -63 907 1 c669
2 915 -1 937 -10 38 -14 88 -52 360 -270 303 -243 687 -531 1024 -770 82 -58
-175 -54 3965 -57 l3799 -3 66 -68 c112 -116 282 -220 451 -276 l75 -25 -4058
-1 c-2807 0 -4087 3 -4153 11 -112 12 -231 41 -289 69 -41 20 -557 394 -784
567 -69 53 -229 179 -354 280 l-228 183 -858 0 -858 0 -33 -67 c-44 -89 -143
-187 -232 -231 -223 -109 -467 -67 -633 109 -70 75 -103 131 -131 224 -23 76
-23 220 -1 293 55 182 196 323 372 373 76 22 203 24 279 4z m-1002 -906 c155
-33 306 -155 370 -297 l19 -43 924 2 924 1 46 -26 c25 -15 170 -126 321 -247
316 -252 404 -319 786 -598 255 -185 283 -203 345 -219 63 -15 431 -17 5119
-19 l5052 -3 6 -23 c16 -60 -8 -195 -53 -300 l-20 -47 -5043 3 -5043 2 -92 22
c-51 12 -118 33 -148 47 -94 43 -734 514 -1115 821 -96 77 -197 157 -224 178
l-49 37 -866 0 -866 0 -34 -68 c-45 -88 -147 -189 -232 -231 -68 -33 -178 -61
-244 -61 -66 0 -176 28 -245 62 -125 61 -239 201 -275 339 -20 73 -19 222 1
290 53 181 199 324 380 374 61 17 186 19 256 4z m-3451 -25 c72 -22 123 -48
187 -97 56 -43 135 -143 153 -196 l11 -31 877 -2 877 -3 57 -35 c31 -19 157
-115 279 -213 123 -99 277 -221 343 -272 128 -98 659 -488 724 -531 82 -54 91
-54 1446 -68 l1250 -12 254 -185 c182 -131 249 -185 235 -188 -38 -8 -2882 20
-2997 30 -137 11 -240 32 -313 64 -89 40 -734 515 -1141 842 l-253 203 -408 0
c-225 0 -592 -3 -816 -7 l-407 -6 -26 -53 c-47 -97 -144 -193 -245 -245 -94
-48 -266 -64 -377 -34 -174 46 -320 187 -373 360 -87 280 72 587 350 676 75
24 237 25 313 3z m-1131 -890 c136 -39 268 -144 325 -262 l30 -61 905 -1 c867
0 907 -1 947 -19 52 -24 112 -68 332 -246 274 -221 422 -333 760 -580 230
-168 328 -233 365 -244 45 -14 285 -16 2091 -21 l2039 -5 -217 -181 -218 -181
-1722 -7 c-1740 -7 -1874 -5 -2033 28 -135 29 -167 47 -524 307 -389 284 -436
319 -715 544 -110 88 -222 178 -249 198 l-49 37 -672 0 c-369 0 -754 -3 -854
-7 l-182 -6 -26 -53 c-54 -111 -163 -211 -283 -260 -87 -36 -247 -45 -335 -19
-182 52 -312 174 -373 349 -33 95 -35 239 -3 337 89 277 379 432 661 353z
m-959 -918 c128 -44 234 -136 299 -258 l31 -58 928 -2 929 -3 68 -47 c38 -26
157 -118 264 -204 299 -240 418 -331 765 -584 235 -171 333 -238 370 -249 41
-12 147 -16 593 -19 505 -3 543 -4 537 -20 -47 -114 -69 -197 -90 -324 l-6
-38 -388 0 c-516 0 -690 15 -836 72 -83 33 -730 509 -1152 848 l-248 200 -865
0 -865 0 -33 -70 c-22 -47 -52 -89 -95 -132 -108 -107 -230 -158 -382 -158
-210 0 -390 111 -481 296 l-39 78 0 166 0 165 34 67 c125 248 404 363 662 274z
m18834 -623 c-74 -70 -222 -189 -331 -265 l-82 -58 -4558 -2 c-4096 -3 -4564
-5 -4609 -19 -77 -24 -664 -455 -1135 -833 -107 -86 -226 -178 -264 -204 l-68
-47 -929 -3 -928 -2 -31 -58 c-65 -123 -171 -213 -304 -260 -96 -34 -230 -36
-331 -4 -173 53 -314 200 -361 377 -19 69 -18 219 2 286 53 182 201 327 379
374 33 8 96 15 140 15 152 0 274 -51 382 -158 43 -43 73 -85 95 -132 l33 -70
865 0 865 0 248 200 c421 338 1069 815 1152 848 73 29 186 52 300 61 55 5
2222 9 4815 9 l4715 1 -60 -56z m-187 -866 c8 -1 -91 -85 -218 -186 l-233
-184 -3961 -1 c-3560 -1 -3966 -3 -4012 -17 -77 -23 -673 -460 -1125 -824
-220 -178 -280 -222 -332 -246 -40 -18 -80 -19 -947 -19 l-905 -1 -30 -61
c-58 -119 -186 -221 -330 -264 -83 -24 -219 -22 -305 5 -162 51 -299 188 -351
350 -32 98 -30 242 3 337 61 175 191 297 373 349 88 26 248 17 335 -19 120
-49 229 -149 283 -260 l26 -53 182 -6 c100 -4 485 -7 854 -7 l672 0 49 37 c27
20 139 110 249 198 279 225 326 260 715 544 225 164 364 258 399 272 76 28
180 49 291 57 78 6 8276 5 8318 -1z m-794 -864 c-13 -75 -7 -213 10 -268 9
-27 16 -56 16 -62 0 -10 -171 -13 -822 -14 -453 0 -1912 -11 -3243 -24 -2622
-26 -2531 -23 -2616 -79 -65 -43 -596 -433 -724 -531 -66 -51 -220 -173 -343
-272 -122 -98 -248 -194 -279 -213 l-57 -35 -877 -3 -877 -2 -11 -31 c-30 -86
-145 -206 -246 -257 -113 -56 -285 -70 -407 -32 -221 68 -372 277 -372 515 0
247 160 458 395 520 111 30 283 14 377 -34 101 -52 198 -148 245 -245 l26 -53
407 -6 c224 -4 591 -7 816 -7 l408 0 253 203 c407 327 1052 802 1141 842 82
36 180 54 351 65 162 11 3626 48 5425 59 542 4 991 7 998 9 10 1 12 -9 6 -45z
m-2449 -532 c-6 -5 -104 -77 -220 -162 -238 -173 -375 -278 -655 -503 -107
-86 -226 -178 -264 -204 l-68 -47 -929 -3 -928 -2 -31 -58 c-65 -123 -171
-213 -304 -260 -96 -34 -230 -36 -331 -4 -173 53 -314 200 -361 377 -19 69
-18 219 2 286 53 182 201 327 379 374 33 8 96 15 140 15 152 0 274 -51 382
-158 43 -43 73 -85 95 -132 l33 -70 865 0 865 0 225 181 c124 100 283 226 354
280 l128 99 316 0 c183 0 312 -4 307 -9z m2992 -413 c75 -94 182 -201 261
-260 l63 -47 -1018 -3 c-880 -3 -1025 -6 -1069 -19 -77 -23 -671 -459 -1125
-824 -220 -178 -280 -222 -332 -246 -40 -18 -80 -19 -947 -19 l-905 -1 -30
-61 c-58 -119 -186 -221 -330 -264 -83 -24 -219 -22 -305 5 -162 51 -299 188
-351 350 -32 98 -30 242 3 337 61 175 191 297 373 349 88 26 248 17 335 -19
120 -49 229 -149 283 -260 l26 -53 182 -6 c100 -4 485 -7 854 -7 l672 0 49 37
c27 20 139 110 249 198 279 225 326 260 715 544 357 260 388 278 524 307 128
27 252 31 1013 33 l752 1 58 -72z m1233 -864 c25 -31 104 -114 177 -184 l131
-127 -661 -6 c-363 -4 -793 -7 -956 -7 -314 0 -542 -11 -629 -30 -40 -9 -80
-31 -163 -91 -369 -266 -657 -482 -917 -690 -162 -130 -320 -252 -351 -270
l-55 -34 -877 -3 -877 -2 -11 -31 c-30 -86 -145 -206 -246 -257 -112 -56 -285
-70 -406 -32 -222 68 -373 277 -373 515 0 247 160 458 395 520 111 30 283 14
377 -34 101 -52 198 -148 245 -245 l26 -53 407 -6 c224 -4 591 -7 816 -7 l408
0 253 203 c290 233 423 334 808 614 290 211 305 221 382 247 149 50 344 58
1642 64 l410 2 45 -56z m698 -3560 c34 -24 29 -64 -13 -97 -65 -52 -95 -147
-95 -299 0 -111 -22 -148 -86 -148 -53 0 -108 46 -183 154 -55 80 -76 148 -56
186 27 53 90 61 145 18 l25 -20 3 24 c12 88 56 158 117 184 41 18 116 17 143
-2z m229 -114 c38 -23 83 -90 83 -122 0 -13 -5 -39 -11 -58 -5 -19 -14 -120
-19 -223 -8 -196 -18 -237 -57 -237 -49 0 -194 213 -242 355 -42 126 -12 237
76 284 50 27 128 27 170 1z m643 -56 c17 -4 47 -21 66 -39 28 -27 34 -39 34
-75 0 -34 -6 -47 -31 -71 -17 -15 -45 -30 -62 -33 -133 -19 -167 -29 -273 -82
-68 -33 -120 -54 -130 -50 -35 13 10 95 113 207 63 67 125 113 181 134 43 16
58 17 102 9z m-1453 -189 c123 -61 237 -211 258 -338 4 -23 18 -55 31 -70 101
-121 -32 -181 -208 -95 -183 91 -337 316 -313 459 15 87 109 105 232 44z
m1701 -68 c40 -39 72 -103 72 -146 0 -75 -56 -130 -176 -175 -120 -45 -196
-84 -277 -144 -140 -104 -209 -89 -192 42 17 130 186 355 316 422 107 54 202
54 257 1z m-2104 -52 c41 -20 68 -66 77 -134 9 -64 27 -91 100 -149 30 -24 71
-56 91 -73 73 -58 64 -108 -31 -178 -173 -129 -335 -153 -478 -71 -63 36 -88
70 -79 105 11 41 46 51 112 30 75 -23 135 -16 182 22 19 16 37 34 39 40 2 6
-19 25 -46 42 -61 39 -128 110 -147 156 -27 65 -13 148 30 184 17 15 83 40
104 41 8 0 28 -7 46 -15z m1027 -394 c21 -17 23 -26 21 -80 -2 -38 1 -61 7
-61 6 0 44 11 85 25 103 35 149 33 188 -5 28 -29 30 -33 23 -88 -4 -42 -2 -62
8 -76 19 -26 52 -14 157 58 44 31 92 59 104 62 79 19 101 -31 42 -97 -42 -46
-43 -55 -15 -109 12 -23 26 -74 32 -115 21 -148 -46 -320 -179 -453 -116 -117
-194 -138 -210 -56 -5 29 -1 42 23 77 59 83 94 165 100 238 5 58 3 69 -10 69
-19 0 -66 -54 -85 -100 -27 -66 -102 -167 -174 -236 -178 -168 -458 -295 -533
-240 -16 12 -17 18 -8 39 16 35 93 98 208 170 143 89 138 112 -25 101 -77 -5
-89 -4 -129 18 -57 30 -84 79 -76 132 10 69 64 154 130 208 107 88 130 145 79
193 -33 31 -113 61 -201 76 -110 18 -136 47 -93 102 15 19 33 27 72 32 29 4
98 27 153 53 170 78 263 98 306 63z m2839 -256 c38 -46 -51 -178 -217 -322
-190 -165 -402 -368 -474 -453 -86 -103 -397 -412 -554 -551 -300 -266 -684
-573 -1055 -844 -199 -146 -289 -212 -445 -331 -380 -287 -964 -570 -1620
-784 -278 -90 -403 -121 -522 -127 -85 -5 -106 -3 -128 11 -64 42 4 166 156
280 195 147 956 580 1484 844 417 208 1059 613 1820 1147 282 197 256 176 482
384 186 171 435 387 613 532 113 93 213 154 325 200 78 32 117 36 135 14z
m-3626 -235 c87 -26 109 -91 57 -171 -59 -91 -150 -149 -291 -185 -131 -33
-269 -1 -336 79 -42 50 -25 146 38 204 38 35 133 74 206 83 85 11 275 5 326
-10z m1774 -702 c7 -39 -144 -172 -435 -382 -189 -137 -1330 -821 -2003 -1201
-258 -146 -313 -180 -1510 -933 -418 -263 -774 -481 -799 -489 -58 -17 -106
-17 -121 2 -23 27 0 83 81 203 247 364 571 685 894 883 50 30 317 170 595 311
524 265 762 389 1035 538 88 48 356 188 595 310 488 250 782 407 913 488 186
114 633 295 717 289 24 -1 36 -7 38 -19z m800 -750 c34 -34 0 -218 -88 -473
-71 -205 -105 -285 -210 -494 -416 -832 -1041 -1668 -1889 -2524 -561 -568
-957 -895 -1266 -1049 l-100 -50 -131 5 c-214 9 -357 52 -412 124 -23 31 -27
46 -27 102 0 135 -39 91 889 1010 1187 1177 1954 1947 2157 2166 331 358 516
579 614 730 109 169 295 386 374 436 49 31 70 36 89 17z m-988 -561 c0 -85
-328 -456 -763 -865 -983 -923 -1791 -1571 -2337 -1875 -175 -97 -418 -199
-564 -237 -265 -67 -458 -2 -547 185 -34 71 -36 114 -8 172 38 78 169 178 299
229 113 44 1028 576 1495 869 116 73 300 185 410 250 746 440 1209 748 1425
950 68 63 331 241 445 300 98 52 145 58 145 22z m2043 -476 c9 -44 26 -261 37
-481 54 -1074 -20 -2196 -181 -2743 -214 -726 -466 -1314 -645 -1504 -39 -42
-45 -45 -41 -23 2 14 46 176 96 360 178 646 326 1241 395 1581 38 191 160 932
200 1214 58 416 66 505 76 895 10 371 26 688 37 716 8 23 20 16 26 -15z m-994
-448 c43 -35 45 -179 6 -403 -74 -425 -472 -1258 -1059 -2211 -130 -212 -266
-393 -507 -677 -160 -187 -471 -501 -587 -592 -193 -151 -344 -225 -447 -218
-62 4 -75 25 -75 123 0 96 21 170 84 300 72 146 138 243 365 535 740 951 1412
1959 1784 2680 150 288 294 458 408 479 4 0 16 -7 28 -16z m602 -348 c43 -129
54 -239 53 -520 -2 -566 -69 -1180 -190 -1745 -100 -464 -321 -1201 -476
-1585 -258 -639 -510 -1000 -766 -1095 -67 -26 -191 -29 -243 -7 -86 36 -147
120 -170 236 -17 88 -6 270 25 401 64 276 321 800 602 1225 141 214 280 492
474 945 291 682 505 1406 575 1945 30 233 78 316 116 200z m986 -332 c12 -41
8 -402 -6 -603 -31 -452 -140 -1405 -237 -2063 -241 -1652 -507 -2596 -792
-2814 -108 -82 -195 -15 -237 185 -42 202 -46 681 -6 864 55 257 134 523 253
851 193 532 494 1520 632 2072 47 190 84 369 102 494 27 195 140 700 199 896
25 83 57 145 75 145 5 0 13 -12 17 -27z m-1389 -48 c20 -78 19 -386 -2 -520
-88 -564 -279 -1062 -560 -1460 -80 -113 -302 -342 -411 -423 -125 -93 -199
-105 -217 -34 -12 44 23 260 57 363 38 112 150 333 260 514 365 598 553 927
618 1085 20 47 52 141 72 209 87 299 150 391 183 266z m-1120 -163 c4 -42 -44
-152 -159 -360 -296 -540 -671 -969 -1092 -1251 -103 -69 -141 -85 -168 -70
-17 9 -20 17 -15 42 13 63 72 145 419 582 392 493 855 1012 957 1074 43 26 54
23 58 -17z"/>
<path d="M26370 27098 c-60 -31 -90 -77 -90 -140 0 -89 41 -144 125 -167 150
-40 265 149 162 266 -57 65 -122 78 -197 41z"/>
<path d="M25240 26208 c-61 -31 -90 -77 -90 -142 0 -100 67 -167 166 -168 75
0 132 46 155 122 16 52 4 104 -34 147 -57 65 -122 79 -197 41z"/>
<path d="M19960 25308 c-60 -31 -90 -77 -90 -140 0 -89 41 -144 125 -167 150
-40 265 149 162 266 -57 65 -122 78 -197 41z"/>
<path d="M24254 25301 c-57 -26 -87 -72 -92 -140 -3 -46 0 -62 20 -91 71 -105
206 -109 281 -8 53 71 21 191 -63 235 -52 28 -91 29 -146 4z"/>
<path d="M18830 24418 c-61 -31 -90 -77 -90 -142 0 -100 67 -167 166 -168 75
0 132 46 155 122 16 52 4 104 -34 147 -57 65 -122 79 -197 41z"/>
<path d="M17844 23511 c-57 -26 -87 -72 -92 -140 -3 -46 0 -62 20 -91 71 -105
206 -109 281 -8 53 71 21 191 -63 235 -52 28 -91 29 -146 4z"/>
<path d="M14350 23488 c-138 -94 -93 -290 69 -306 136 -13 224 135 151 253
-44 71 -154 98 -220 53z"/>
<path d="M13220 22598 c-55 -37 -80 -83 -80 -143 0 -124 122 -200 234 -146
110 54 126 204 29 278 -51 39 -135 44 -183 11z"/>
<path d="M12229 21687 c-58 -39 -81 -83 -77 -148 5 -67 33 -111 88 -139 79
-40 173 -12 218 65 45 78 12 189 -68 230 -44 23 -121 19 -161 -8z"/>
<path d="M17838 20340 c-54 -29 -81 -73 -86 -139 -3 -46 0 -62 20 -91 36 -53
83 -80 140 -80 93 0 159 61 165 153 9 129 -125 217 -239 157z"/>
<path d="M18840 19439 c-62 -25 -100 -85 -100 -157 0 -57 27 -104 80 -140 46
-31 130 -28 179 8 38 26 70 90 71 136 1 107 -129 193 -230 153z"/>
<path d="M19970 18549 c-14 -6 -36 -20 -48 -32 -110 -102 -40 -287 108 -287
123 0 203 125 150 234 -37 78 -132 116 -210 85z"/>
<path d="M24248 18590 c-54 -29 -81 -73 -86 -139 -3 -46 0 -62 20 -91 36 -53
83 -80 140 -80 93 0 159 61 165 153 9 129 -125 217 -239 157z"/>
<path d="M25250 17689 c-62 -25 -100 -85 -100 -157 0 -57 27 -104 80 -140 46
-31 130 -28 179 8 38 26 70 90 71 136 1 107 -129 193 -230 153z"/>
<path d="M26380 16799 c-14 -6 -36 -20 -48 -32 -110 -102 -40 -287 108 -287
123 0 203 125 150 234 -37 78 -132 116 -210 85z"/>
<path d="M34334 22072 c39 -77 141 -197 238 -281 l88 -76 0 -185 c0 -102 5
-202 11 -223 15 -56 47 -72 144 -72 92 0 125 14 219 91 l59 49 76 0 c82 0 141
-21 202 -72 l29 -25 0 47 c0 117 -54 278 -120 357 -43 52 -120 88 -189 88
-157 1 -461 129 -696 294 -88 62 -89 62 -61 8z"/>
<path d="M36100 21017 c-55 -43 -114 -106 -107 -113 2 -2 32 8 67 22 36 14 88
28 117 31 41 5 60 13 88 39 51 46 43 58 -41 62 -68 2 -70 2 -124 -41z"/>
<path d="M33820 20869 c-38 -11 -92 -75 -137 -163 l-25 -50 51 46 c63 57 120
85 201 100 60 12 61 12 58 42 -3 30 -4 31 -58 33 -30 1 -71 -3 -90 -8z"/>
<path d="M32895 19166 c-39 -14 -95 -41 -124 -60 -62 -42 -182 -101 -336 -163
-60 -25 -112 -48 -115 -50 -3 -3 40 -3 95 0 120 6 217 31 387 99 116 46 132
56 183 108 30 32 55 66 55 74 0 24 -62 20 -145 -8z"/>
<path d="M11366 12939 c6 -11 307 -350 654 -737 l145 -162 4425 0 4425 0 382
428 c210 235 394 439 408 455 l26 27 -5236 0 c-3913 0 -5234 -3 -5229 -11z"/>
<path d="M8986 11808 c5 -8 186 -211 403 -451 l394 -437 1923 0 c2170 0 1988
6 2244 -79 506 -170 831 -510 935 -981 26 -116 32 -429 11 -550 -57 -326 -247
-647 -507 -856 -151 -120 -358 -230 -569 -301 l-115 -38 -1605 -5 c-1131 -4
-1614 -8 -1635 -16 -68 -25 -139 -68 -179 -108 -84 -84 -149 -270 -125 -359
36 -134 141 -270 256 -330 131 -68 104 -67 1257 -67 859 0 1036 -2 1043 -14 4
-7 188 -206 408 -442 220 -236 465 -499 545 -584 80 -86 266 -285 414 -444
148 -158 274 -290 280 -292 6 -2 285 -3 619 -2 l609 3 -203 215 c-111 118
-352 373 -534 565 -989 1045 -975 1031 -975 1043 0 5 27 12 60 15 155 17 443
111 635 208 513 259 886 698 1084 1273 54 155 106 373 131 543 18 121 19 154
10 275 -29 382 -105 669 -260 977 -209 418 -534 738 -965 951 -253 126 -521
209 -850 267 l-150 26 -2299 4 c-2001 5 -2297 3 -2290 -9z"/>
<path d="M20770 11810 c-1413 -7 -1324 -3 -1592 -71 -422 -106 -785 -314
-1044 -599 -592 -651 -795 -1434 -573 -2209 88 -308 253 -639 430 -861 72 -91
218 -238 309 -310 125 -99 228 -164 385 -240 206 -101 371 -154 625 -201 111
-20 156 -21 1220 -29 1904 -14 2696 -12 2787 5 268 51 416 238 383 488 -21
161 -110 287 -238 339 -67 27 88 26 -2347 19 l-1460 -4 -119 27 c-487 112
-826 365 -1026 764 -88 177 -150 419 -150 586 0 182 66 445 161 645 136 286
360 512 642 650 144 70 320 125 441 137 33 3 781 7 1661 8 l1599 1 219 235
c120 129 240 258 265 285 26 28 109 117 186 198 l138 147 -808 -2 c-445 -1
-1387 -5 -2094 -8z"/>
<path d="M16140 8625 l0 -3165 455 0 455 0 0 3165 0 3165 -455 0 -455 0 0
-3165z"/>
<path d="M8855 8620 l0 -3160 453 0 452 0 0 2639 0 2638 -137 160 c-317 367
-765 883 -766 883 -1 0 -2 -1422 -2 -3160z"/>
<path d="M19200 9977 c-219 -59 -338 -189 -348 -383 -12 -223 89 -389 271
-445 l67 -21 1824 10 c1747 9 1827 9 1923 -8 200 -37 338 -81 488 -157 389
-196 647 -542 746 -1000 31 -141 29 -283 -4 -444 -73 -349 -207 -602 -431
-817 -182 -175 -418 -297 -701 -364 l-90 -21 -1625 2 -1626 3 -403 -433 -402
-434 193 -3 c106 -1 1053 2 2103 7 l1910 10 145 30 c568 116 973 356 1302 771
292 369 461 748 523 1171 22 152 20 420 -4 584 -85 574 -374 1124 -765 1452
-246 207 -554 360 -881 439 -238 56 -232 56 -1190 64 -489 4 -1351 8 -1915 8
l-1025 1 -85 -22z"/>
<path d="M9644 4820 c-258 -23 -471 -137 -586 -314 -115 -177 -131 -481 -36
-670 62 -123 174 -212 441 -353 247 -130 340 -200 392 -294 61 -110 28 -252
-74 -319 -66 -44 -130 -60 -242 -60 -150 0 -342 45 -472 112 -22 11 -41 18
-43 16 -2 -2 -10 -76 -19 -163 -8 -88 -17 -178 -20 -201 l-6 -40 128 -32 c173
-43 219 -51 353 -61 206 -17 386 10 535 79 153 71 256 169 321 305 53 110 68
183 68 325 0 328 -107 464 -535 680 -179 90 -287 156 -326 198 -117 126 -83
315 69 383 48 22 66 24 198 24 155 -1 242 -17 374 -71 32 -13 61 -23 62 -21 6
6 35 400 30 404 -10 10 -157 43 -251 57 -130 19 -260 25 -361 16z"/>
<path d="M12233 4773 c-4 -10 -174 -531 -378 -1158 l-371 -1140 249 -3 c138
-1 252 0 254 2 4 4 40 132 134 479 l10 37 378 0 378 0 58 -227 c32 -126 62
-243 67 -260 l9 -33 270 0 269 0 -5 23 c-3 12 -165 533 -359 1157 l-352 1135
-302 3 c-281 2 -303 1 -309 -15z m420 -890 c65 -247 120 -458 123 -470 l6 -23
-267 0 c-209 0 -266 3 -263 13 2 6 65 218 138 470 74 251 137 457 141 457 3 0
58 -201 122 -447z"/>
<path d="M15423 4773 c-4 -10 -174 -531 -378 -1158 l-371 -1140 249 -3 c138
-1 252 0 254 2 4 4 40 132 134 479 l10 37 378 0 378 0 58 -227 c32 -126 62
-243 67 -260 l9 -33 270 0 269 0 -5 23 c-3 12 -165 533 -359 1157 l-352 1135
-302 3 c-281 2 -303 1 -309 -15z m420 -890 c65 -247 120 -458 123 -470 l6 -23
-267 0 c-209 0 -266 3 -263 13 2 6 65 218 138 470 74 251 137 457 141 457 3 0
58 -201 122 -447z"/>
<path d="M17670 4585 l0 -205 255 0 255 0 0 -955 0 -955 260 0 260 0 0 955 0
955 255 0 255 0 0 205 0 205 -770 0 -770 0 0 -205z"/>
<path d="M20510 3630 l0 -1160 675 0 675 0 0 195 0 195 -410 0 -410 0 0 300 0
300 370 0 370 0 0 195 0 195 -370 0 -370 0 0 275 0 275 395 0 395 0 0 195 0
195 -660 0 -660 0 0 -1160z"/>
<path d="M23250 3630 l0 -1160 260 0 260 0 0 475 0 475 93 0 c76 0 101 -4 137
-22 95 -49 111 -87 261 -625 l84 -303 268 0 c147 0 267 3 267 7 0 17 -273 847
-300 914 -49 119 -89 163 -184 208 l-59 28 54 17 c193 63 318 189 363 362 10
38 16 104 16 171 0 255 -91 420 -284 513 -171 83 -317 100 -847 100 l-389 0 0
-1160z m825 755 c121 -32 176 -109 183 -255 6 -115 -15 -187 -67 -239 -58 -58
-112 -73 -278 -79 l-143 -4 0 296 0 296 123 0 c78 0 144 -6 182 -15z"/>
</g>
</svg>
